<svg xmlns="http://www.w3.org/2000/svg" width="189.125" height="20" viewBox="0 0 189.125 20"><path fill="#1A171B" d="M65.55 7.626c-.365-.876-.547-1.605-1.387-1.752l-.475-.073c-.146-.18-.11-.51.073-.582.585.037 1.388.073 2.19.073.62 0 1.096-.036 1.898-.072.146.11.183.475.037.584l-.292.037c-.73.11-.73.22-.51.95.547 1.603 1.204 3.247 1.75 4.487.22.475.293.693.366.768.11-.072.254-.4.437-.877.292-.802 1.095-2.846 1.313-3.466.33-.84.438-1.315.438-1.46 0-.22-.146-.292-.438-.365l-.547-.072c-.146-.184-.11-.51.037-.584.73.037 1.314.073 1.752.073.583 0 .984-.036 1.64-.072.147.11.184.44.038.585l-.365.035c-.803.11-1.022.73-1.715 2.044-.33.62-1.79 4.05-2.153 5-.22.584-.475 1.13-.767 1.934-.037.074-.146.11-.22.11-.11 0-.218-.036-.29-.11-.184-.656-.548-1.57-.877-2.445L65.55 7.63v-.004zm41.205-2.773v3.285h-.365c-.29-1.022-.656-1.716-1.095-2.117-.438-.364-1.022-.546-1.715-.546-.51 0-.95.146-1.277.4-.33.255-.475.547-.475.876 0 .4.11.73.364 1.022.22.29.693.584 1.424.912l1.642.73c1.533.69 2.3 1.606 2.3 2.737 0 .878-.365 1.57-1.06 2.118-.694.55-1.496.803-2.372.803-.62 0-1.35-.106-2.152-.325-.256-.074-.438-.11-.62-.11-.183 0-.292.073-.402.257h-.365v-3.434h.365c.22.986.62 1.715 1.204 2.227.584.51 1.24.73 2.008.73.51 0 .95-.146 1.277-.438.327-.293.51-.62.51-1.023 0-.473-.18-.875-.546-1.203-.363-.33-1.094-.73-2.19-1.24-1.093-.51-1.787-.95-2.15-1.35-.33-.4-.51-.913-.51-1.533 0-.803.29-1.46.874-1.97.584-.55 1.35-.805 2.264-.805.4 0 .912.073 1.46.256.364.11.62.146.766.146.11 0 .22-.037.292-.073.072-.036.146-.145.22-.33h.328l-.003.003z"/><path fill="#E2101A" d="M9.71 6.275c.366.548.44 1.606.44 2.3v3.1c0 2.667 0 2.632.95 2.886.217.073.545.073.545.257 0 .145-.182.182-.438.182s-1.497-.073-2.08-.073-1.9.072-2.19.072c-.402 0-.548 0-.548-.146 0-.22.437-.184.802-.33.437-.146.73-.254.802-.838.073-.584.073-1.424.073-3.03 0-1.97 0-3.175-.438-3.722-.475-.548-.95-.694-1.75-.694-.84 0-1.535.582-1.827 1.057-.364.657-.4 2.044-.4 3.32 0 1.753 0 2.593.145 3.177.073.328.33.51.657.656.255.11.73.146.73.33s-.292.182-.51.182c-.22 0-1.752-.072-2.118-.072-.4 0-2.043.072-2.19.072-.29 0-.364 0-.364-.146 0-.182.33-.22.693-.33.475-.107.73-.217.803-.69.11-.73.11-2.01.11-3.943 0-1.35 0-2.19-.22-2.445-.11-.113-.328-.223-.584-.258C.478 7.114.26 7.114.26 6.968c0-.11.072-.147.145-.185.95-.328 1.79-.912 2.7-1.68.074-.072.22-.183.33-.183.183 0 .22.22.22.438v1.06c0 .146.036.29.145.29.365 0 1.277-1.713 3.32-1.713 1.314.038 2.08.547 2.59 1.278v.002zm6.936 7.264c-.51.73-1.46 1.57-2.81 1.57-1.315 0-1.862-1.062-1.862-1.792 0-1.64 1.644-2.408 2.92-3.065 2.044-1.02 2.08-.766 2.08-2.883 0-.62.038-1.096-.108-1.387-.292-.547-.657-.657-1.205-.657-1.422 0-1.896 1.313-2.225 2.372-.145.438-.692.693-1.094.693-.22 0-.547-.145-.547-.51 0-.985 1.57-3.065 4.307-3.065 1.314 0 2.81.255 2.81 1.935 0 1.35-.182 5-.182 5.693 0 .69.146 1.35.803 1.35.695 0 1.06-.584 1.206-.584.11 0 .11.11.11.183 0 .4-.84 1.605-2.226 1.605-.95 0-1.533-.62-1.752-1.314 0-.072-.037-.146-.11-.146-.037-.037-.073-.037-.11 0h-.002zm-.146-3.504c-.292 0-2.665 1.167-2.665 2.738 0 .875.693 1.24 1.205 1.24.547 0 .985-.328 1.314-.84.44-.62.475-1.64.475-2.737 0-.293-.11-.4-.33-.4zM23.908 3.5c0 .44-.037 1.097-.037 1.534 0 .22.11.328.256.328l4.817-.182c.438 0 .51.11.51.547 0 .912-.036 1.787-.072 6.168 0 1.094.51 1.824 2.008 1.824.84 0 1.68-.4 2.007-1.022.255-.44.255-1.79.255-2.92 0-2.336 0-3.504-.255-3.723-.22-.22-.547-.22-.985-.29-.438-.075-.62-.075-.62-.222s.073-.218.365-.218l3.175-.073c.365 0 .438.11.438.4 0 .804-.146 3.432-.146 5.512 0 1.24 0 2.19.182 2.445.11.218.328.253.766.253.146 0 .51-.037.62-.037s.147.074.147.146c0 .11-.11.184-.402.22-.438.073-2.117.51-2.846.802-.11.037-.33.11-.366.11-.146 0-.22-.11-.22-.366 0-.33.038-.584.038-1.02 0-.185-.037-.33-.183-.33-.256 0-1.424 1.644-3.358 1.644-1.13 0-2.737-.658-2.737-2.883 0-1.243.073-4.857.073-5.332 0-.875-.037-.875-1.79-.875-.583 0-1.057 0-1.386.035-.33 0-.365.04-.4.55-.038.766-.074 1.97-.074 4.56 0 1.096 0 1.752.22 2.19.218.4.546.548 1.094.548.73 0 1.533-.4 1.606-.4.073 0 .11.035.11.107 0 .22-1.46 1.533-3.03 1.533-1.68 0-2.08-1.24-2.08-2.955 0-.876.11-4.89.11-5.183s0-.62-.476-.62h-.693c-.11 0-.183-.038-.183-.11 0-.22.182-.22.51-.437.767-.548 1.862-1.423 2.41-2.19.11-.183.183-.33.33-.33.217-.032.29.078.29.26zm13.87 3.542c-.147 0-.257-.037-.257-.11 0-.145.147-.182.44-.292.327-.11 1.64-.875 2.225-1.424.292-.292.438-.328.51-.328.11 0 .22.073.22.365v1.13c0 .22.073.22.11.22.327 0 1.094-1.68 2.554-1.68.84 0 1.386.622 1.386 1.352 0 .768-.547 1.205-1.204 1.205-.84 0-1.023-.875-1.79-.875-.4 0-.547.29-.693.438-.4.438-.44 1.68-.44 3.504 0 1.715-.037 3.03.183 3.357.255.402 1.205.547 1.533.584.255.037.438.037.438.22 0 .145-.292.145-.475.145s-1.86-.074-2.556-.074c-.695 0-2.226.07-2.41.07-.184 0-.437 0-.437-.145 0-.182.255-.22.51-.254.183-.036.877-.18 1.023-.583.145-.398.18-1.203.18-3.87.075-2.627.04-2.882-1.056-2.955h.003zM52.302 8.54c-1.352 0-3.03-.11-5-.11-.512 0-.73 0-.73.985 0 2.3.984 4.27 3.576 4.27 1.934 0 2.773-1.35 2.92-1.35.11 0 .145.073.145.145 0 .4-1.825 2.59-4.233 2.59-2.628 0-4.636-1.896-4.636-4.926 0-3.174 2.41-5.365 5.22-5.365 2.08 0 3.685 1.567 3.685 3.174-.04.584-.33.584-.95.584h.003zM49.42 5.252c-1.753 0-2.628 1.497-2.628 2.264 0 .29.327.364 1.386.364 1.24 0 2.993-.107 2.993-1.238.036-.438-.44-1.388-1.753-1.388h.002z"/><path fill="#1A171B" d="M154.42 11.094c-.293 1.277-.84 2.264-1.644 2.92-.803.693-1.715 1.02-2.7 1.02-1.17 0-2.19-.472-3.066-1.386-.875-.912-1.313-2.152-1.313-3.723 0-1.533.475-2.736 1.424-3.686.985-.95 2.118-1.427 3.468-1.427 1.02 0 1.86.256 2.482.768.656.51.984 1.022.984 1.57 0 .255-.107.475-.29.657-.184.146-.44.254-.768.254-.438 0-.767-.145-.985-.4-.108-.146-.22-.437-.254-.838s-.183-.73-.438-.95c-.254-.22-.62-.328-1.094-.328-.77 0-1.353.256-1.826.768-.62.693-.912 1.606-.912 2.737 0 1.167.29 2.153.912 3.065.62.875 1.424 1.314 2.445 1.314.73 0 1.387-.222 1.97-.694.402-.33.804-.914 1.206-1.752l.4.11zm11.35-6.278c1.57 0 2.81.547 3.76 1.68.803.947 1.204 2.042 1.204 3.247 0 .876-.22 1.75-.657 2.626-.438.874-1.06 1.532-1.825 2.007-.768.438-1.643.656-2.59.656-1.57 0-2.775-.584-3.725-1.752-.767-.983-1.168-2.08-1.168-3.284 0-.876.22-1.752.692-2.628.475-.876 1.094-1.534 1.86-1.936.766-.4 1.57-.62 2.446-.62l.003.004zm-.365.693c-.402 0-.803.11-1.205.327-.4.22-.73.62-.985 1.168-.256.547-.364 1.277-.364 2.153 0 1.386.292 2.626.876 3.613.584 1.022 1.387 1.534 2.373 1.534.73 0 1.313-.293 1.787-.842.476-.545.693-1.53.693-2.88 0-1.716-.4-3.068-1.167-4.05-.475-.697-1.17-1.025-2.008-1.025v.002zm-45.293 8.176c-.51.475-.985.84-1.46 1.06-.475.218-.984.327-1.532.327-1.096 0-2.08-.438-2.92-1.312s-1.24-2.007-1.24-3.357.475-2.627 1.387-3.723c.913-1.13 2.117-1.716 3.54-1.716.913 0 1.644.255 2.228.804V4.015c0-1.096-.036-1.752-.072-2.008-.036-.255-.146-.4-.255-.51-.11-.074-.255-.146-.438-.146s-.438.072-.766.183l-.146-.365L121.466 0h.51v10.985c0 1.13.037 1.787.073 2.043.072.256.145.4.254.51.11.11.256.148.44.148s.474-.074.802-.184l.11.365-3.03 1.168h-.51v-1.35h-.004zm0-.694V8.066c-.036-.476-.183-.914-.4-1.278-.22-.4-.51-.692-.876-.875-.365-.218-.73-.29-1.058-.29-.657 0-1.24.254-1.752.802-.657.73-1.022 1.79-1.022 3.175 0 1.385.33 2.483.985 3.21.657.73 1.387 1.097 2.19 1.097.655 0 1.276-.293 1.934-.912l-.002-.003zm5.584-11.75c.29 0 .584.107.767.326.22.184.33.438.33.73s-.11.547-.33.73c-.22.22-.476.29-.767.29-.293 0-.584-.108-.803-.29-.22-.22-.33-.438-.33-.73s.11-.547.33-.73c.22-.22.475-.33.803-.33v.003zm1.424 9.38c0 1.712 0 2.552.146 3.136.072.328.33.512.656.62.255.11.73.147.73.33s-.293.183-.51.183c-.22 0-1.717-.07-2.12-.07-.4 0-2.007.07-2.152.07-.292 0-.365 0-.365-.145 0-.182.328-.22.692-.29.475-.112.73-.185.804-.694.11-.73.11-1.972.11-3.906 0-1.313 0-2.152-.184-2.41-.11-.107-.292-.217-.584-.254-.33-.037-.547-.037-.547-.183 0-.11.073-.146.146-.183.915-.292 1.792-.912 2.667-1.643.072-.07.22-.182.33-.182.182 0 .182.218.182.437v1.022c.034.144 0 2.88 0 4.16v.004zm58.98-5.294v.4c.29 0 .51.037.618.073.11.038.22.11.256.184.038.074.074.146.074.293 0 .29-.072.584-.184.875l-2.115 5.44-2.336-4.963c-.22-.51-.33-.877-.33-1.17 0-.22.073-.364.22-.51.145-.145.4-.22.692-.22h.22v-.4h-4.604v.4c.293 0 .584.146.693.184.11.038.184.074.22.146.108.073.255.256.438.51.22.33.4.623.51.84l3.433 7.446-.693 1.715c-.255.622-.51 1.062-.766 1.278-.256.22-.476.33-.657.33-.073 0-.255-.037-.51-.146-.402-.146-.694-.22-.95-.22-.328 0-.584.073-.803.255-.184.182-.293.438-.293.73 0 .328.146.584.4.84.256.256.585.363 1.02.363.55 0 1.134-.254 1.753-.73.62-.474 1.096-1.204 1.46-2.153l3.868-9.817c.184-.438.293-.73.365-.84.18-.254.328-.4.438-.475.146-.072.328-.146.584-.182v-.398h-3.028v-.073l.005-.004zM62.666 8.538c-1.35 0-3.03-.108-5-.108-.51 0-.73 0-.73.985 0 2.3.986 4.27 3.577 4.27 1.935 0 2.774-1.35 2.92-1.35.11 0 .146.073.146.145 0 .4-1.825 2.59-4.233 2.59-2.628 0-4.635-1.896-4.635-4.926 0-3.174 2.41-5.365 5.22-5.365 2.08 0 3.685 1.567 3.685 3.174-.036.584-.328.584-.95.585zm-2.883-3.285c-1.75 0-2.627 1.497-2.627 2.264 0 .29.33.364 1.387.364 1.24 0 2.993-.107 2.993-1.238.036-.438-.438-1.388-1.752-1.388zM80.988 8.54c-1.35 0-3.03-.11-5-.11-.51 0-.73 0-.73.985 0 2.3.985 4.27 3.577 4.27 1.935 0 2.774-1.35 2.92-1.35.11 0 .146.073.146.145 0 .4-1.824 2.59-4.232 2.59-2.628 0-4.635-1.896-4.635-4.926 0-3.174 2.41-5.365 5.22-5.365 2.08 0 3.686 1.567 3.686 3.174-.04.584-.33.584-.952.585zm-2.882-3.287c-1.752 0-2.628 1.497-2.628 2.264 0 .29.33.364 1.387.364 1.24 0 2.993-.107 2.993-1.238.036-.437-.44-1.388-1.752-1.39zm66.057 3.286c-1.35 0-3.028-.11-5-.11-.51 0-.73 0-.73.985 0 2.3.986 4.27 3.578 4.27 1.937 0 2.775-1.35 2.92-1.35.11 0 .147.073.147.145 0 .4-1.825 2.59-4.233 2.59-2.626 0-4.634-1.896-4.634-4.926 0-3.174 2.41-5.365 5.22-5.365 2.08 0 3.687 1.567 3.687 3.174-.04.584-.33.584-.95.584h-.004zm-2.883-3.287c-1.75 0-2.627 1.497-2.627 2.264 0 .29.33.364 1.387.364 1.24 0 2.992-.107 2.992-1.238.037-.437-.44-1.388-1.752-1.39zM91.863 6.275c.366.548.44 1.606.44 2.3v3.1c0 2.667 0 2.632.948 2.886.22.073.548.073.548.257 0 .145-.183.182-.438.182-.256 0-1.497-.073-2.08-.073S89.382 15 89.09 15c-.402 0-.548 0-.548-.146 0-.22.437-.184.802-.33.438-.146.73-.254.803-.838.073-.584.073-1.424.073-3.03 0-1.97 0-3.175-.438-3.722-.475-.547-.95-.693-1.752-.693-.84 0-1.533.583-1.825 1.058-.365.657-.4 2.044-.4 3.32 0 1.753 0 2.593.145 3.177.073.328.328.51.657.656.255.112.73.147.73.33s-.292.183-.51.183c-.22 0-1.752-.072-2.118-.072-.4 0-2.045.073-2.19.073-.293 0-.366 0-.366-.146 0-.182.33-.22.693-.33.475-.107.73-.217.803-.69.11-.73.11-2.01.11-3.943 0-1.35 0-2.19-.22-2.445-.11-.11-.328-.222-.584-.257-.328-.036-.547-.036-.547-.182 0-.11.072-.146.145-.184.95-.328 1.79-.912 2.7-1.68.074-.072.22-.183.33-.183.183 0 .22.22.22.438v1.062c0 .145.035.29.145.29.365 0 1.277-1.714 3.32-1.714 1.316.037 2.083.547 2.593 1.277zm37.483.767c-.146 0-.255-.037-.255-.11 0-.145.147-.182.44-.292.33-.11 1.642-.875 2.226-1.424.292-.292.438-.328.51-.328.11 0 .22.073.22.365v1.13c0 .22.073.22.11.22.328 0 1.094-1.68 2.555-1.68.84 0 1.388.622 1.388 1.352 0 .768-.547 1.205-1.204 1.205-.84 0-1.022-.875-1.79-.875-.4 0-.547.29-.693.438-.4.438-.437 1.68-.437 3.504 0 1.715-.037 3.03.182 3.357.256.402 1.205.547 1.533.584.256.037.438.037.438.22 0 .145-.29.145-.475.145s-1.858-.074-2.554-.074-2.227.07-2.41.07c-.182 0-.438 0-.438-.145 0-.182.256-.22.51-.254.184-.036.877-.18 1.023-.583.146-.398.18-1.203.18-3.87.077-2.627 0-2.882-1.056-2.955h.002zm41.825 0c-.145 0-.254-.037-.254-.11 0-.145.146-.182.438-.292.33-.11 1.643-.875 2.227-1.424.293-.292.44-.328.51-.328.11 0 .222.073.222.365v1.13c0 .22.072.22.11.22.327 0 1.093-1.68 2.554-1.68.84 0 1.387.622 1.387 1.352 0 .768-.547 1.205-1.205 1.205-.84 0-1.02-.875-1.787-.875-.4 0-.548.29-.692.438-.4.438-.438 1.68-.438 3.504 0 1.715-.037 3.03.182 3.357.256.402 1.205.547 1.533.584.254.037.438.037.438.22 0 .145-.293.145-.476.145s-1.86-.074-2.556-.074c-.693 0-2.225.07-2.408.07-.185 0-.437 0-.437-.145 0-.182.254-.22.51-.254.184-.036.877-.18 1.022-.583.146-.4.183-1.203.183-3.87.037-2.626 0-2.88-1.06-2.955zM99.64 6.058c-.255-.037-.656-.037-1.277-.037-.583 0-1.06 0-1.386.038-.328 0-.363.037-.4.547-.036.766-.073 1.97-.073 4.56 0 1.097 0 1.753.22 2.192.22.398.548.545 1.095.545.73 0 1.533-.4 1.606-.4s.11.037.11.11c0 .218-1.46 1.532-3.03 1.532-1.68 0-2.042-1.24-2.042-2.992 0-.875.11-4.89.11-5.182 0-.293 0-.62-.475-.62h-.657c-.108 0-.18-.038-.18-.11 0-.22.18-.22.51-.438.766-.547 1.86-1.422 2.372-2.19.11-.18.183-.327.33-.327s.218.11.218.292c0 .438-.035 1.095-.035 1.532 0 .22.11.33.255.33l2.735-.11v.73l-.002-.002zm61.35 0c-.255-.037-.656-.037-1.277-.037-.583 0-1.057 0-1.387.038-.326 0-.363.037-.4.547-.036.766-.072 1.97-.072 4.56 0 1.097 0 1.753.222 2.192.218.398.546.545 1.094.545.73 0 1.533-.4 1.607-.4.072 0 .11.037.11.11 0 .218-1.46 1.532-3.03 1.532-1.68 0-2.043-1.24-2.043-2.992 0-.875.11-4.89.11-5.182 0-.293 0-.62-.478-.62h-.692c-.11 0-.183-.038-.183-.11 0-.22.183-.22.51-.438.768-.547 1.863-1.422 2.374-2.19.11-.18.184-.327.33-.327.147 0 .22.11.22.292 0 .438-.038 1.095-.038 1.532 0 .22.11.33.255.33l2.737-.11.035.73v-.002z"/></svg>